<svg xmlns="http://www.w3.org/2000/svg" xmlns:xlink="http://www.w3.org/1999/xlink" width="100" zoomAndPan="magnify" viewBox="0 0 75 74.999997" height="100" preserveAspectRatio="xMidYMid meet" version="1.0"><defs><clipPath id="769752f816"><path d="M 19.597656 17.515625 L 27 17.515625 L 27 33 L 19.597656 33 Z M 19.597656 17.515625 " clip-rule="nonzero"/></clipPath><clipPath id="7efa5b005d"><path d="M 19.597656 17.515625 L 55.597656 17.515625 L 55.597656 53.515625 L 19.597656 53.515625 Z M 19.597656 17.515625 " clip-rule="nonzero"/></clipPath></defs><path fill="#ffffff" d="M 39.160156 26.167969 C 39.160156 26.167969 40.941406 20.113281 35.148438 18.808594 C 29.382812 17.511719 28.414062 23.75 28.414062 23.75 L 27.058594 29.796875 L 37.796875 32.21875 L 39.160156 26.167969 " fill-opacity="1" fill-rule="nonzero"/><path fill="#ffffff" d="M 30.808594 46.492188 L 31.617188 40.476562 C 32.3125 40.207031 32.859375 39.613281 33.035156 38.832031 C 33.316406 37.589844 32.527344 36.359375 31.292969 36.082031 C 30.050781 35.800781 28.8125 36.578125 28.535156 37.816406 C 28.355469 38.578125 28.585938 39.328125 29.066406 39.863281 L 27.257812 45.695312 L 30.808594 46.492188 " fill-opacity="1" fill-rule="nonzero"/><g clip-path="url(#769752f816)"><path fill="#ffffff" d="M 19.710938 31.691406 C 20.019531 30.339844 21.078125 29.355469 22.355469 29.082031 L 23.949219 22.011719 C 23.949219 22.011719 24.460938 19.75 26.070312 17.621094 L 23.464844 17.621094 C 21.335938 17.621094 19.609375 19.347656 19.609375 21.476562 L 19.609375 32.136719 L 19.710938 31.691406 " fill-opacity="1" fill-rule="nonzero"/></g><g clip-path="url(#7efa5b005d)"><path fill="#ffffff" d="M 51.535156 17.621094 L 42.046875 17.621094 C 45.109375 21.355469 43.949219 26.511719 43.949219 26.511719 L 42.363281 33.578125 C 43.390625 34.375 43.933594 35.71875 43.628906 37.070312 L 40.589844 50.582031 C 40.167969 52.453125 38.3125 53.628906 36.449219 53.210938 L 19.609375 49.417969 L 19.609375 49.546875 C 19.609375 51.675781 21.335938 53.402344 23.464844 53.402344 L 51.535156 53.402344 C 53.664062 53.402344 55.390625 51.675781 55.390625 49.546875 L 55.390625 21.476562 C 55.390625 19.347656 53.664062 17.621094 51.535156 17.621094 " fill-opacity="1" fill-rule="nonzero"/></g></svg>